<svg width="384" height="384" viewBox="0 0 384 384" fill="none" xmlns="http://www.w3.org/2000/svg">
<path d="M192 85.334C215.564 85.334 234.667 66.2313 234.667 42.667C234.667 19.1027 215.564 0 192 0C168.436 0 149.333 19.1027 149.333 42.667C149.333 66.2313 168.436 85.334 192 85.334Z" fill="#D0D0D0"/>
<path d="M192 234.667C215.564 234.667 234.667 215.564 234.667 192C234.667 168.436 215.564 149.333 192 149.333C168.436 149.333 149.333 168.436 149.333 192C149.333 215.564 168.436 234.667 192 234.667Z" fill="#D0D0D0"/>
<path d="M192 384C215.564 384 234.667 364.897 234.667 341.333C234.667 317.769 215.564 298.666 192 298.666C168.436 298.666 149.333 317.769 149.333 341.333C149.333 364.897 168.436 384 192 384Z" fill="#D0D0D0"/>
</svg>
